<svg xmlns="http://www.w3.org/2000/svg" viewBox="0 0 192 192" width="192" height="192">
  <rect width="192" height="192" rx="40" fill="#4B5A36"/>
  <!-- Inner Background Circle -->
  <circle cx="96" cy="96" r="76" fill="#FAF8F5"/>
  
  <!-- Mate Gourd Body -->
  <path d="M60 90 C 52 140, 140 140, 132 90 C 130 80, 122 75, 96 75 C 70 75, 62 80, 60 90 Z" fill="#2C221E"/>
  
  <!-- Virola (Alpaca Ring) -->
  <path d="M 60 82 C 60 72, 132 72, 132 82 L 128 88 C 128 82, 64 82, 64 88 Z" fill="#C5BAA8"/>
  <ellipse cx="96" cy="76" rx="34" ry="7" fill="#E2DAD0" stroke="#8C7F70" stroke-width="2"/>
  
  <!-- Yerba Fill -->
  <ellipse cx="96" cy="76" rx="28" ry="4" fill="#3D4A2B"/>
  
  <!-- Bombilla -->
  <path d="M 110 75 L 142 32 M 142 32 L 148 38" stroke="#D8CFC4" stroke-width="5" stroke-linecap="round"/>
  <circle cx="146" cy="34" r="5" fill="#8C7F70"/>
  
  <!-- PAMPA Text -->
  <text x="96" y="162" font-family="'Playfair Display', serif" font-size="19" font-weight="bold" fill="#4B5A36" text-anchor="middle" letter-spacing="3">PAMPA</text>
</svg>
